<?xml version="1.0" encoding="UTF-8"?>
<!DOCTYPE svg PUBLIC "-//W3C//DTD SVG 1.1//EN" "http://www.w3.org/Graphics/SVG/1.1/DTD/svg11.dtd">
<svg xmlns="http://www.w3.org/2000/svg" version="1.1" width="2048px" height="2048px" style="shape-rendering:geometricPrecision; text-rendering:geometricPrecision; image-rendering:optimizeQuality; fill-rule:evenodd; clip-rule:evenodd" xmlns:xlink="http://www.w3.org/1999/xlink">
<g><path style="opacity:1" fill="#fefefe" d="M -0.5,-0.5 C 327.833,-0.5 656.167,-0.5 984.5,-0.5C 707.902,14.2332 473.402,120.233 281,317.5C 201.118,401.919 137.285,497.253 89.5,603.5C 73.9846,636.549 60.6513,670.549 49.5,705.5C 44.7276,718.919 40.7276,732.586 37.5,746.5C 26.1819,784.786 17.5152,823.786 11.5,863.5C 9.79318,873.781 8.45985,884.115 7.5,894.5C 6.11101,899.269 5.44435,904.269 5.5,909.5C 2.7061,934.574 0.706105,959.574 -0.5,984.5C -0.5,656.167 -0.5,327.833 -0.5,-0.5 Z"/></g>
<g><path style="opacity:1" fill="#08a8cc" d="M 984.5,-0.5 C 1008.83,-0.5 1033.17,-0.5 1057.5,-0.5C 1317.14,11.3677 1541.47,105.534 1730.5,282C 1812.49,360.565 1879.49,450.065 1931.5,550.5C 1930.96,550.56 1930.62,550.893 1930.5,551.5C 1954.92,598.5 1975.42,647.166 1992,697.5C 1993.74,698.368 1995.24,700.035 1996.5,702.5C 2026.76,794.515 2043.76,888.848 2047.5,985.5C 2047.5,1009.17 2047.5,1032.83 2047.5,1056.5C 2034.37,1334.23 1929.04,1570.07 1731.5,1764C 1542.07,1941.33 1317.07,2035.83 1056.5,2047.5C 1032.83,2047.5 1009.17,2047.5 985.5,2047.5C 957.611,2045.98 929.611,2043.81 901.5,2041C 896.763,2040.3 892.096,2039.47 887.5,2038.5C 886.048,2037.7 884.382,2037.2 882.5,2037C 882.833,2036.67 883.167,2036.33 883.5,2036C 839.861,2030.17 796.861,2021.34 754.5,2009.5C 751.905,2010.24 749.238,2010.24 746.5,2009.5C 554.707,1954.42 392.207,1853.09 259,1705.5C 97.0922,1520.39 10.5922,1304.39 -0.5,1057.5C -0.5,1033.17 -0.5,1008.83 -0.5,984.5C 0.706105,959.574 2.7061,934.574 5.5,909.5C 7.03084,904.75 7.69751,899.75 7.5,894.5C 8.45985,884.115 9.79318,873.781 11.5,863.5C 12.397,862.402 13.2303,862.402 14,863.5C 19.8797,827.434 27.5464,791.767 37,756.5C 36.6519,753.064 36.8186,749.731 37.5,746.5C 40.7276,732.586 44.7276,718.919 49.5,705.5C 51.3,706.605 52.4666,705.939 53,703.5C 63.731,670.305 76.231,637.805 90.5,606C 89.7476,605.329 89.4142,604.496 89.5,603.5C 137.285,497.253 201.118,401.919 281,317.5C 473.402,120.233 707.902,14.2332 984.5,-0.5 Z"/></g>
<g><path style="opacity:1" fill="#fefefe" d="M 1057.5,-0.5 C 1387.5,-0.5 1717.5,-0.5 2047.5,-0.5C 2047.5,328.167 2047.5,656.833 2047.5,985.5C 2043.76,888.848 2026.76,794.515 1996.5,702.5C 1979.17,649.849 1957.5,599.182 1931.5,550.5C 1879.49,450.065 1812.49,360.565 1730.5,282C 1541.47,105.534 1317.14,11.3677 1057.5,-0.5 Z"/></g>
<g><path style="opacity:1" fill="#fefefe" d="M 1111.5,184.5 C 1118.6,186.228 1125.93,187.228 1133.5,187.5C 1134.17,187.5 1134.83,187.5 1135.5,187.5C 1174.42,193.733 1213.08,201.733 1251.5,211.5C 1443.34,268.552 1597.51,378.219 1714,540.5C 1726.5,558.827 1738.5,577.494 1750,596.5C 1760.6,617.025 1770.1,638.025 1778.5,659.5C 1716.5,660.667 1654.5,660.833 1592.5,660C 1495.13,512.102 1360.79,414.769 1189.5,368C 1109.79,348.149 1029.13,342.649 947.5,351.5C 942.586,351.362 937.919,352.028 933.5,353.5C 768.967,377.04 631.134,450.04 520,572.5C 483.848,613.487 453.015,658.153 427.5,706.5C 411.177,735.826 397.51,766.493 386.5,798.5C 383.063,806.481 380.397,814.814 378.5,823.5C 377.957,823.56 377.624,823.893 377.5,824.5C 459.497,825.5 541.497,825.833 623.5,825.5C 675.242,919.98 726.742,1014.65 778,1109.5C 780.681,1114.87 783.848,1119.87 787.5,1124.5C 841.96,1025.08 896.294,925.58 950.5,826C 996.837,825.167 1043.17,825.333 1089.5,826.5C 1146.69,932.221 1204.36,1037.55 1262.5,1142.5C 1315.23,1037.71 1367.89,933.047 1420.5,828.5C 1420.5,828.167 1420.5,827.833 1420.5,827.5C 1561.5,827.5 1702.5,827.5 1843.5,827.5C 1860.12,898.162 1867.79,969.829 1866.5,1042.5C 1864.83,1080.89 1861.16,1119.22 1855.5,1157.5C 1815.47,1382.85 1704.8,1564.35 1523.5,1702C 1339.55,1834.16 1134.55,1886.49 908.5,1859C 708.706,1829.03 540.206,1740.87 403,1594.5C 298.589,1479.03 229.422,1344.69 195.5,1191.5C 252.824,1189.5 310.49,1188.84 368.5,1189.5C 415.824,1364.93 515.824,1501.43 668.5,1599C 678.564,1605.36 688.897,1611.2 699.5,1616.5C 729.122,1633.48 760.122,1647.48 792.5,1658.5C 865.162,1686.03 940.495,1699.7 1018.5,1699.5C 1192.94,1698.43 1345.27,1640.6 1475.5,1526C 1606.73,1405.03 1680.57,1255.2 1697,1076.5C 1699.33,1049.85 1699.83,1023.18 1698.5,996.5C 1669.67,995.167 1640.51,994.5 1611,994.5C 1581.66,994.5 1552.5,994.833 1523.5,995.5C 1458.84,1123.82 1394.17,1252.82 1329.5,1382.5C 1287.17,1383.83 1244.83,1383.83 1202.5,1382.5C 1141.94,1271.04 1081.1,1159.7 1020,1048.5C 958.913,1159.67 898.079,1271.01 837.5,1382.5C 803.933,1383.83 770.433,1383.83 737,1382.5C 666.339,1252.36 595.506,1122.36 524.5,992.5C 410.335,991.5 296.001,991.167 181.5,991.5C 181.5,989.5 181.5,987.5 181.5,985.5C 181.677,963.71 183.344,942.043 186.5,920.5C 187.889,915.731 188.556,910.731 188.5,905.5C 218.828,706.984 306.828,539.484 452.5,403C 614.857,256.623 806.023,182.457 1026,180.5C 1054.53,181.186 1083.03,182.519 1111.5,184.5 Z"/></g>
<g><path style="opacity:1" fill="#59c0da" d="M 1111.5,184.5 C 1119.09,184.585 1126.42,185.585 1133.5,187.5C 1125.93,187.228 1118.6,186.228 1111.5,184.5 Z"/></g>
<g><path style="opacity:1" fill="#34afd0" d="M 1135.5,187.5 C 1156.3,188.399 1176.96,191.232 1197.5,196C 1212.91,199.352 1228.24,203.019 1243.5,207C 1245.36,208.89 1248.02,210.39 1251.5,211.5C 1213.08,201.733 1174.42,193.733 1135.5,187.5 Z"/></g>
<g><path style="opacity:1" fill="#5fc2db" d="M 947.5,351.5 C 943.1,353.104 938.434,353.771 933.5,353.5C 937.919,352.028 942.586,351.362 947.5,351.5 Z"/></g>
<g><path style="opacity:1" fill="#2faecf" d="M 1931.5,550.5 C 1957.5,599.182 1979.17,649.849 1996.5,702.5C 1995.24,700.035 1993.74,698.368 1992,697.5C 1975.42,647.166 1954.92,598.5 1930.5,551.5C 1930.62,550.893 1930.96,550.56 1931.5,550.5 Z"/></g>
<g><path style="opacity:1" fill="#32afd0" d="M 89.5,603.5 C 89.4142,604.496 89.7476,605.329 90.5,606C 76.231,637.805 63.731,670.305 53,703.5C 52.4666,705.939 51.3,706.605 49.5,705.5C 60.6513,670.549 73.9846,636.549 89.5,603.5 Z"/></g>
<g><path style="opacity:1" fill="#2eaecf" d="M 427.5,706.5 C 426.926,710.325 425.759,713.991 424,717.5C 410.845,741.818 399.845,767.152 391,793.5C 390.344,795.986 388.844,797.653 386.5,798.5C 397.51,766.493 411.177,735.826 427.5,706.5 Z"/></g>
<g><path style="opacity:1" fill="#33afd0" d="M 37.5,746.5 C 36.8186,749.731 36.6519,753.064 37,756.5C 27.5464,791.767 19.8797,827.434 14,863.5C 13.2303,862.402 12.397,862.402 11.5,863.5C 17.5152,823.786 26.1819,784.786 37.5,746.5 Z"/></g>
<g><path style="opacity:1" fill="#51c2db" d="M 378.5,823.5 C 460.167,824.167 541.833,824.833 623.5,825.5C 541.497,825.833 459.497,825.5 377.5,824.5C 377.624,823.893 377.957,823.56 378.5,823.5 Z"/></g>
<g><path style="opacity:1" fill="#00a3c9" d="M 1420.5,827.5 C 1420.5,827.833 1420.5,828.167 1420.5,828.5C 1418.45,828.294 1418.12,827.461 1419.5,826C 1560.83,825.333 1702.17,825.333 1843.5,826C 1702.33,826.167 1561.33,826.667 1420.5,827.5 Z"/></g>
<g><path style="opacity:1" fill="#79cde2" d="M 7.5,894.5 C 7.69751,899.75 7.03084,904.75 5.5,909.5C 5.44435,904.269 6.11101,899.269 7.5,894.5 Z"/></g>
<g><path style="opacity:1" fill="#c0e7f1" d="M 188.5,905.5 C 188.556,910.731 187.889,915.731 186.5,920.5C 186.444,915.269 187.111,910.269 188.5,905.5 Z"/></g>
<g><path style="opacity:1" fill="#d7f1f6" d="M 181.5,985.5 C 181.5,987.5 181.5,989.5 181.5,991.5C 296.001,991.167 410.335,991.5 524.5,992.5C 409.833,992.5 295.167,992.5 180.5,992.5C 180.198,989.941 180.532,987.607 181.5,985.5 Z"/></g>
<g><path style="opacity:1" fill="#37b9d6" d="M 1523.5,995.5 C 1552.5,994.833 1581.66,994.5 1611,994.5C 1640.51,994.5 1669.67,995.167 1698.5,996.5C 1640.24,995.504 1581.9,995.171 1523.5,995.5 Z"/></g>
<g><path style="opacity:1" fill="#fefefe" d="M 2047.5,1056.5 C 2047.5,1386.83 2047.5,1717.17 2047.5,2047.5C 1717.17,2047.5 1386.83,2047.5 1056.5,2047.5C 1317.07,2035.83 1542.07,1941.33 1731.5,1764C 1929.04,1570.07 2034.37,1334.23 2047.5,1056.5 Z"/></g>
<g><path style="opacity:1" fill="#fefefe" d="M -0.5,1057.5 C 10.5922,1304.39 97.0922,1520.39 259,1705.5C 392.207,1853.09 554.707,1954.42 746.5,2009.5C 792.568,2023.1 839.568,2032.76 887.5,2038.5C 892.096,2039.47 896.763,2040.3 901.5,2041C 929.611,2043.81 957.611,2045.98 985.5,2047.5C 656.833,2047.5 328.167,2047.5 -0.5,2047.5C -0.5,1717.5 -0.5,1387.5 -0.5,1057.5 Z"/></g>
<g><path style="opacity:1" fill="#2eaecf" d="M 1866.5,1042.5 C 1867.27,1081.07 1864.44,1119.4 1858,1157.5C 1857.23,1158.6 1856.4,1158.6 1855.5,1157.5C 1861.16,1119.22 1864.83,1080.89 1866.5,1042.5 Z"/></g>
<g><path style="opacity:1" fill="#50c1da" d="M 368.5,1189.5 C 310.49,1188.84 252.824,1189.5 195.5,1191.5C 194.596,1190.79 194.263,1189.79 194.5,1188.5C 252.669,1188.17 310.669,1188.5 368.5,1189.5 Z"/></g>
<g><path style="opacity:1" fill="#2faecf" d="M 792.5,1658.5 C 760.122,1647.48 729.122,1633.48 699.5,1616.5C 698.537,1615.64 698.537,1614.97 699.5,1614.5C 729.606,1630.57 759.939,1644.74 790.5,1657C 791.416,1657.28 792.082,1657.78 792.5,1658.5 Z"/></g>
<g><path style="opacity:1" fill="#35afd0" d="M 746.5,2009.5 C 749.238,2010.24 751.905,2010.24 754.5,2009.5C 796.861,2021.34 839.861,2030.17 883.5,2036C 883.167,2036.33 882.833,2036.67 882.5,2037C 884.382,2037.2 886.048,2037.7 887.5,2038.5C 839.568,2032.76 792.568,2023.1 746.5,2009.5 Z"/></g>
</svg>
