<?xml version="1.0" standalone="no"?>
<!DOCTYPE svg PUBLIC "-//W3C//DTD SVG 20010904//EN"
 "http://www.w3.org/TR/2001/REC-SVG-20010904/DTD/svg10.dtd">
<svg version="1.0" xmlns="http://www.w3.org/2000/svg"
 width="360.000000pt" height="401.000000pt" viewBox="0 0 360.000000 401.000000"
 preserveAspectRatio="xMidYMid meet">

<g transform="translate(0.000000,401.000000) scale(0.100000,-0.100000)"
fill="#000000" stroke="none">
<path d="M1580 4004 c-359 -13 -765 -67 -1160 -155 -154 -34 -390 -95 -398
-104 -11 -11 -22 -317 -17 -470 21 -583 124 -1059 327 -1513 188 -421 421
-758 773 -1116 75 -77 159 -165 186 -196 108 -124 470 -430 509 -430 44 0 385
292 546 467 55 60 155 167 224 238 554 576 894 1302 995 2125 25 201 37 515
27 712 -5 98 -11 181 -14 184 -16 15 -525 126 -773 168 -393 66 -880 102
-1225 90z m610 -429 c163 -15 238 -26 390 -56 123 -24 383 -89 490 -122 l75
-24 7 -129 c11 -210 -3 -531 -33 -756 -88 -670 -336 -1255 -737 -1742 -41 -50
-134 -149 -207 -221 -128 -126 -331 -295 -354 -295 -23 0 -208 156 -350 294
-533 523 -840 1168 -952 2001 -22 167 -37 619 -25 766 l7 85 141 38 c308 83
636 145 873 165 162 14 518 12 675 -4z"/>
</g>
</svg>
